<svg width="26" height="26" viewBox="0 0 26 26" fill="none" xmlns="http://www.w3.org/2000/svg">
<path opacity="0.2" d="M20.3125 5.6875V21.125C20.3125 21.3405 20.2269 21.5472 20.0745 21.6995C19.9222 21.8519 19.7155 21.9375 19.5 21.9375H6.5C6.28451 21.9375 6.07785 21.8519 5.92548 21.6995C5.7731 21.5472 5.6875 21.3405 5.6875 21.125V5.6875H20.3125Z" fill="#EE3F2E"/>
<path d="M21.9375 4.875H17.875V4.0625C17.875 3.41603 17.6182 2.79605 17.1611 2.33893C16.704 1.88181 16.084 1.625 15.4375 1.625H10.5625C9.91603 1.625 9.29605 1.88181 8.83893 2.33893C8.38181 2.79605 8.125 3.41603 8.125 4.0625V4.875H4.0625C3.84701 4.875 3.64035 4.9606 3.48798 5.11298C3.3356 5.26535 3.25 5.47201 3.25 5.6875C3.25 5.90299 3.3356 6.10965 3.48798 6.26202C3.64035 6.4144 3.84701 6.5 4.0625 6.5H4.875V21.125C4.875 21.556 5.0462 21.9693 5.35095 22.274C5.6557 22.5788 6.06902 22.75 6.5 22.75H19.5C19.931 22.75 20.3443 22.5788 20.649 22.274C20.9538 21.9693 21.125 21.556 21.125 21.125V6.5H21.9375C22.153 6.5 22.3597 6.4144 22.512 6.26202C22.6644 6.10965 22.75 5.90299 22.75 5.6875C22.75 5.47201 22.6644 5.26535 22.512 5.11298C22.3597 4.9606 22.153 4.875 21.9375 4.875ZM9.75 4.0625C9.75 3.84701 9.8356 3.64035 9.98798 3.48798C10.1403 3.3356 10.347 3.25 10.5625 3.25H15.4375C15.653 3.25 15.8597 3.3356 16.012 3.48798C16.1644 3.64035 16.25 3.84701 16.25 4.0625V4.875H9.75V4.0625ZM19.5 21.125H6.5V6.5H19.5V21.125ZM11.375 10.5625V17.0625C11.375 17.278 11.2894 17.4847 11.137 17.637C10.9847 17.7894 10.778 17.875 10.5625 17.875C10.347 17.875 10.1403 17.7894 9.98798 17.637C9.8356 17.4847 9.75 17.278 9.75 17.0625V10.5625C9.75 10.347 9.8356 10.1403 9.98798 9.98798C10.1403 9.8356 10.347 9.75 10.5625 9.75C10.778 9.75 10.9847 9.8356 11.137 9.98798C11.2894 10.1403 11.375 10.347 11.375 10.5625ZM16.25 10.5625V17.0625C16.25 17.278 16.1644 17.4847 16.012 17.637C15.8597 17.7894 15.653 17.875 15.4375 17.875C15.222 17.875 15.0153 17.7894 14.863 17.637C14.7106 17.4847 14.625 17.278 14.625 17.0625V10.5625C14.625 10.347 14.7106 10.1403 14.863 9.98798C15.0153 9.8356 15.222 9.75 15.4375 9.75C15.653 9.75 15.8597 9.8356 16.012 9.98798C16.1644 10.1403 16.25 10.347 16.25 10.5625Z" fill="#EE3F2E"/>
</svg>
