<svg width="26" height="26" viewBox="0 0 26 26" fill="none" xmlns="http://www.w3.org/2000/svg">
<path d="M19.5 2.71362C18.5278 2.71362 17.5558 3.08216 16.8191 3.81917L4.82946 15.8078C4.60197 16.0353 4.43537 16.3182 4.34704 16.6287L2.74003 22.2559C2.70039 22.3952 2.69868 22.5425 2.73507 22.6826C2.77145 22.8227 2.84461 22.9506 2.94698 23.053C3.04935 23.1553 3.17722 23.2285 3.31734 23.2649C3.45747 23.3013 3.60477 23.2996 3.74401 23.2599L9.37227 21.6529L9.37333 21.6519C9.68182 21.5632 9.96403 21.3986 10.1922 21.1705L22.1808 9.18083C23.6547 7.70688 23.6547 5.29312 22.1808 3.81917C21.4441 3.08216 20.4721 2.71362 19.5 2.71362ZM19.5 4.3291C20.0529 4.3291 20.6051 4.54216 21.0308 4.9681H21.0319C21.8849 5.82116 21.8849 7.17884 21.0319 8.0319L19.9813 9.08244L16.9175 6.01864L17.9681 4.9681C18.3938 4.54216 18.947 4.3291 19.5 4.3291ZM15.7686 7.16756L18.8324 10.2314L9.04219 20.0216C9.01043 20.0531 8.97021 20.0773 8.92476 20.0903L4.70357 21.2964L5.90962 17.0741V17.0731C5.92204 17.0294 5.94479 16.9903 5.97839 16.9567L15.7686 7.16756Z" fill="#49CCF9"/>
<path d="M5.57139 17.1786L15.7857 6.96429L19.0357 10.2143L8.82139 20.4286L4.64282 21.3572L5.57139 17.1786Z" fill="#B1DBF6"/>
</svg>
