<svg width="22" height="22" viewBox="0 0 22 22" fill="none" xmlns="http://www.w3.org/2000/svg">
<path d="M14.037 3.66666C13.9937 3.88941 13.9721 4.11584 13.9725 4.34275C13.9725 6.37866 15.6254 8.0291 17.6643 8.0291C17.8888 8.02799 18.1127 8.00644 18.3333 7.9647V15.273C18.3333 18.3476 16.5197 20.1667 13.4405 20.1667H6.73414C3.64694 20.1667 1.83331 18.3476 1.83331 15.273V8.57641C1.83331 5.50178 3.64694 3.66666 6.73414 3.66666H14.037ZM14.0403 9.16811C13.861 9.1939 13.6999 9.29114 13.5937 9.43763L11.3851 12.2789L8.8702 10.2989C8.72661 10.187 8.54396 10.1376 8.36347 10.1618C8.18298 10.1861 8.01988 10.2819 7.91099 10.4276L5.20263 13.9208C5.10744 14.0395 5.05618 14.1873 5.05754 14.3393L5.05992 14.4405C5.08618 14.7063 5.26851 14.936 5.52966 15.0185C5.82345 15.1112 6.14291 14.9942 6.30693 14.7337L8.57196 11.804L11.0869 13.7759C11.2299 13.8912 11.4138 13.9435 11.5962 13.9208C11.7786 13.898 11.9439 13.8021 12.0541 13.6552L14.6738 10.2747V10.2586C14.8981 9.95725 14.8409 9.53231 14.5448 9.3008C14.4016 9.1902 14.2195 9.14232 14.0403 9.16811Z" fill="#56555C"/>
<path opacity="0.4" d="M17.875 6.41666C19.1406 6.41666 20.1666 5.39065 20.1666 4.12499C20.1666 2.85934 19.1406 1.83333 17.875 1.83333C16.6093 1.83333 15.5833 2.85934 15.5833 4.12499C15.5833 5.39065 16.6093 6.41666 17.875 6.41666Z" fill="#56555C"/>
</svg>
