<svg width="22" height="22" viewBox="0 0 22 22" fill="none" xmlns="http://www.w3.org/2000/svg">
<path d="M14.713 16.5825C14.2964 16.5733 13.9613 16.225 13.9613 15.8033C13.9523 15.3817 14.2873 15.0342 14.7039 15.0251H14.713C15.1386 15.0251 15.4827 15.3734 15.4827 15.8033C15.4827 16.2342 15.1386 16.5825 14.713 16.5825ZM11.0181 13.2092C10.6015 13.2284 10.2574 12.8975 10.2393 12.4767C10.2393 12.0551 10.5653 11.7067 10.9819 11.6875C11.3894 11.6875 11.7245 12.0092 11.7335 12.4208C11.7516 12.8434 11.4256 13.1917 11.0181 13.2092ZM11.0181 16.5367C10.6015 16.5559 10.2574 16.225 10.2393 15.8033C10.2393 15.3817 10.5653 15.0342 10.9819 15.015C11.3894 15.015 11.7245 15.3367 11.7335 15.7492C11.7516 16.1709 11.4256 16.5192 11.0181 16.5367ZM7.2961 13.2092C6.87953 13.2284 6.5354 12.8975 6.51729 12.4767C6.51729 12.0551 6.8433 11.7067 7.25988 11.6875C7.6674 11.6875 8.00247 12.0092 8.01153 12.4208C8.02964 12.8434 7.70362 13.1917 7.2961 13.2092ZM7.28705 16.5367C6.87047 16.5559 6.52634 16.225 6.50823 15.8033C6.50823 15.3817 6.83425 15.0342 7.25082 15.015C7.65834 15.015 7.99341 15.3367 8.00247 15.7492C8.02058 16.1709 7.69457 16.5192 7.28705 16.5367ZM13.9704 12.4676C13.9704 12.0459 14.2964 11.7067 14.713 11.6976C15.1205 11.6976 15.4465 12.0267 15.4646 12.4309C15.4737 12.8526 15.1476 13.2009 14.7401 13.2092C14.3235 13.2183 13.9794 12.8975 13.9704 12.4767V12.4676ZM2.75 8.48558V15.4642C2.75 18.3608 4.57931 20.1667 7.45006 20.1667H14.5409C17.4388 20.1667 19.25 18.3975 19.25 15.5201V8.48558H2.75Z" fill="#56555C"/>
<path opacity="0.4" d="M2.75305 8.48548C2.76482 7.9474 2.8101 6.87948 2.89523 6.53573C3.32992 4.60248 4.80604 3.37415 6.91609 3.19907H15.0846C17.1765 3.38332 18.6708 4.6199 19.1054 6.53573C19.1897 6.87032 19.2349 7.94648 19.2467 8.48548H2.75305Z" fill="#56555C"/>
<path d="M7.61278 6.04083C8.01124 6.04083 8.31009 5.73924 8.31009 5.33499V2.54008C8.31009 2.13583 8.01124 1.83333 7.61278 1.83333C7.21431 1.83333 6.91547 2.13583 6.91547 2.54008V5.33499C6.91547 5.73924 7.21431 6.04083 7.61278 6.04083Z" fill="#56555C"/>
<path d="M14.387 6.04083C14.7764 6.04083 15.0843 5.73924 15.0843 5.33499V2.54008C15.0843 2.13583 14.7764 1.83333 14.387 1.83333C13.9885 1.83333 13.6897 2.13583 13.6897 2.54008V5.33499C13.6897 5.73924 13.9885 6.04083 14.387 6.04083Z" fill="#56555C"/>
</svg>
