<svg width="22" height="22" viewBox="0 0 22 22" fill="none" xmlns="http://www.w3.org/2000/svg">
<path opacity="0.4" d="M15.4773 4.6886H12.7795C12.1074 4.69304 11.4693 4.39408 11.0434 3.87521L10.155 2.64698C9.73624 2.12356 9.09817 1.82319 8.42709 1.83359H6.51987C3.09665 1.83359 1.83331 3.84267 1.83331 7.25893V10.9517C1.82906 11.3578 20.1627 11.3573 20.1638 10.9517V9.87806C20.1801 6.4618 18.9494 4.6886 15.4773 4.6886Z" fill="#56555C"/>
<path d="M15.4691 4.6886C16.6652 4.5961 17.8523 4.95617 18.7945 5.69721C18.903 5.78923 19.0039 5.88988 19.0961 5.99817C19.3894 6.34108 19.616 6.73553 19.7644 7.16132C20.0565 8.03645 20.1917 8.9561 20.1638 9.87806V14.6934C20.1626 15.0989 20.1327 15.5039 20.0742 15.9053C19.9627 16.6136 19.7135 17.2934 19.3406 17.9063C19.1692 18.2023 18.9611 18.4756 18.7212 18.7197C17.6351 19.7164 16.1929 20.2353 14.7193 20.1594H7.26971C5.79377 20.2347 4.34921 19.7161 3.25965 18.7197C3.0226 18.4751 2.81723 18.2018 2.64837 17.9063C2.27767 17.2938 2.03378 16.6134 1.93112 15.9053C1.86584 15.5046 1.83331 15.0993 1.83331 14.6934V9.87806C1.83331 9.4759 1.85492 9.07403 1.89852 8.67424C1.92297 8.48716 1.98002 8.30821 1.98002 8.12926C2.06276 7.6468 2.21369 7.17849 2.4283 6.73836C3.06404 5.37999 4.36812 4.6886 6.50356 4.6886H15.4691ZM15.6892 12.7331H6.38945C5.97082 12.7331 5.63145 13.0718 5.63145 13.4895C5.63145 13.9073 5.97082 14.246 6.38945 14.246H15.6321C15.8346 14.2548 16.0321 14.1823 16.1807 14.0448C16.3292 13.9072 16.4164 13.7161 16.4227 13.5139C16.4342 13.3363 16.3757 13.1612 16.2597 13.0259C16.1263 12.8441 15.9149 12.7356 15.6892 12.7331Z" fill="#56555C"/>
</svg>
