<svg width="25" height="29" viewBox="0 0 25 29" fill="none" xmlns="http://www.w3.org/2000/svg">
<path opacity="0.2" d="M22.0001 24H2.00009C1.82506 23.9989 1.65338 23.952 1.5022 23.8638C1.35101 23.7756 1.22563 23.6492 1.13857 23.4974C1.05152 23.3456 1.00584 23.1735 1.0061 22.9985C1.00637 22.8235 1.05257 22.6516 1.14009 22.5C1.96384 21.075 3.00009 17.4762 3.00009 13C3.00009 10.6131 3.9483 8.32387 5.63613 6.63604C7.32396 4.94821 9.61314 4 12.0001 4C14.387 4 13.3122 8.31217 15 10C16.6878 11.6878 21.0001 10.6131 21.0001 13C21.0001 17.4775 22.0376 21.075 22.8626 22.5C22.9502 22.6518 22.9964 22.8239 22.9966 22.9991C22.9967 23.1744 22.9508 23.3466 22.8635 23.4985C22.7761 23.6504 22.6504 23.7767 22.4989 23.8647C22.3473 23.9527 22.1753 23.9994 22.0001 24Z" fill="#7B68EE"/>
<path d="M17 28C17 28.2652 16.8946 28.5196 16.7071 28.7071C16.5196 28.8946 16.2652 29 16 29H7.99999C7.73477 29 7.48042 28.8946 7.29288 28.7071C7.10534 28.5196 6.99999 28.2652 6.99999 28C6.99999 27.7348 7.10534 27.4804 7.29288 27.2929C7.48042 27.1054 7.73477 27 7.99999 27H16C16.2652 27 16.5196 27.1054 16.7071 27.2929C16.8946 27.4804 17 27.7348 17 28ZM23.7312 24C23.5577 24.3056 23.3058 24.5595 23.0015 24.7353C22.6972 24.911 22.3514 25.0024 22 25H1.99999C1.64841 24.9995 1.30317 24.9064 0.999058 24.73C0.69495 24.5535 0.442723 24.3 0.267799 23.9951C0.0928752 23.6901 0.00143637 23.3444 0.00269844 22.9928C0.0039605 22.6412 0.097879 22.2962 0.274988 21.9925C0.968738 20.7975 1.99999 17.4175 1.99999 13C1.99999 10.3478 3.05356 7.8043 4.92892 5.92893C6.80428 4.05357 9.34782 3 12 3C14.6522 3 13.1246 7.62464 15 9.5C16.8754 11.3754 22 9.34784 22 12C22 16.4163 23.0325 20.7975 23.7262 21.9925C23.9051 22.2966 23.9997 22.6429 24.0004 22.9957C24.0011 23.3486 23.9077 23.6952 23.73 24H23.7312ZM22 23C21.0337 21.3412 20 17.0063 20 12.5C20 10.3783 15.5003 12.0003 14 10.5C12.4997 8.99971 13.6217 5 11.5 5C9.37825 5 7.84342 5.84285 6.34313 7.34315C4.84284 8.84344 3.99999 10.8783 3.99999 13C3.99999 17.5075 2.96499 21.3425 1.99999 23H22Z" fill="#7B68EE"/>
<rect x="13.5" y="1.5" width="10" height="10" rx="3.5" fill="#FF5733" stroke="#F2BDE3" stroke-width="3"/>
</svg>
