<svg width="17" height="14" viewBox="0 0 17 14" fill="none" xmlns="http://www.w3.org/2000/svg">
<path d="M15.8125 0.375H10.75C10.3134 0.375 9.88274 0.476658 9.49221 0.671923C9.10168 0.867189 8.76198 1.1507 8.5 1.5C8.23802 1.1507 7.89832 0.867189 7.50779 0.671923C7.11726 0.476658 6.68663 0.375 6.25 0.375H1.1875C1.03832 0.375 0.895242 0.434263 0.789752 0.539753C0.684263 0.645242 0.625 0.788316 0.625 0.9375V11.0625C0.625 11.2117 0.684263 11.3548 0.789752 11.4602C0.895242 11.5657 1.03832 11.625 1.1875 11.625H6.25C6.69755 11.625 7.12678 11.8028 7.44324 12.1193C7.75971 12.4357 7.9375 12.8649 7.9375 13.3125C7.9375 13.4617 7.99676 13.6048 8.10225 13.7102C8.20774 13.8157 8.35082 13.875 8.5 13.875C8.64918 13.875 8.79226 13.8157 8.89775 13.7102C9.00324 13.6048 9.0625 13.4617 9.0625 13.3125C9.0625 12.8649 9.24029 12.4357 9.55676 12.1193C9.87322 11.8028 10.3024 11.625 10.75 11.625H15.8125C15.9617 11.625 16.1048 11.5657 16.2102 11.4602C16.3157 11.3548 16.375 11.2117 16.375 11.0625V0.9375C16.375 0.788316 16.3157 0.645242 16.2102 0.539753C16.1048 0.434263 15.9617 0.375 15.8125 0.375ZM6.25 10.5H1.75V1.5H6.25C6.69755 1.5 7.12678 1.67779 7.44324 1.99426C7.75971 2.31072 7.9375 2.73995 7.9375 3.1875V11.0625C7.45112 10.6965 6.8587 10.499 6.25 10.5ZM15.25 10.5H10.75C10.1413 10.499 9.54888 10.6965 9.0625 11.0625V3.1875C9.0625 2.73995 9.24029 2.31072 9.55676 1.99426C9.87322 1.67779 10.3024 1.5 10.75 1.5H15.25V10.5ZM10.75 3.1875H13.5625C13.7117 3.1875 13.8548 3.24676 13.9602 3.35225C14.0657 3.45774 14.125 3.60082 14.125 3.75C14.125 3.89918 14.0657 4.04226 13.9602 4.14775C13.8548 4.25324 13.7117 4.3125 13.5625 4.3125H10.75C10.6008 4.3125 10.4577 4.25324 10.3523 4.14775C10.2468 4.04226 10.1875 3.89918 10.1875 3.75C10.1875 3.60082 10.2468 3.45774 10.3523 3.35225C10.4577 3.24676 10.6008 3.1875 10.75 3.1875ZM14.125 6C14.125 6.14918 14.0657 6.29226 13.9602 6.39775C13.8548 6.50324 13.7117 6.5625 13.5625 6.5625H10.75C10.6008 6.5625 10.4577 6.50324 10.3523 6.39775C10.2468 6.29226 10.1875 6.14918 10.1875 6C10.1875 5.85082 10.2468 5.70774 10.3523 5.60225C10.4577 5.49676 10.6008 5.4375 10.75 5.4375H13.5625C13.7117 5.4375 13.8548 5.49676 13.9602 5.60225C14.0657 5.70774 14.125 5.85082 14.125 6ZM14.125 8.25C14.125 8.39918 14.0657 8.54226 13.9602 8.64775C13.8548 8.75324 13.7117 8.8125 13.5625 8.8125H10.75C10.6008 8.8125 10.4577 8.75324 10.3523 8.64775C10.2468 8.54226 10.1875 8.39918 10.1875 8.25C10.1875 8.10082 10.2468 7.95774 10.3523 7.85225C10.4577 7.74676 10.6008 7.6875 10.75 7.6875H13.5625C13.7117 7.6875 13.8548 7.74676 13.9602 7.85225C14.0657 7.95774 14.125 8.10082 14.125 8.25Z" fill="#7B68EE"/>
</svg>
