<svg width="23" height="23" viewBox="0 0 23 23" fill="none" xmlns="http://www.w3.org/2000/svg">
<path opacity="0.2" d="M21.3523 13.7461L13.7461 21.3523C13.6113 21.487 13.4286 21.5626 13.238 21.5626C13.0475 21.5626 12.8647 21.487 12.73 21.3523L3.80398 12.429C3.66945 12.2943 3.59384 12.1117 3.59375 11.9214V3.59375H11.9214C12.1117 3.59384 12.2943 3.66945 12.429 3.80398L21.3523 12.7273C21.4194 12.7941 21.4726 12.8734 21.5089 12.9609C21.5453 13.0483 21.564 13.142 21.564 13.2367C21.564 13.3313 21.5453 13.4251 21.5089 13.5125C21.4726 13.5999 21.4194 13.6793 21.3523 13.7461Z" fill="#FD71AF"/>
<path d="M21.8599 12.2188L12.9375 3.29637C12.8045 3.16231 12.6462 3.05602 12.4717 2.98368C12.2973 2.91134 12.1102 2.8744 11.9214 2.87501H3.59376C3.40313 2.87501 3.22032 2.95073 3.08552 3.08552C2.95073 3.22032 2.87501 3.40313 2.87501 3.59376V11.9214C2.8744 12.1102 2.91134 12.2973 2.98368 12.4717C3.05602 12.6462 3.16231 12.8045 3.29637 12.9375L12.2188 21.8599C12.3522 21.9934 12.5107 22.0993 12.6852 22.1716C12.8596 22.2438 13.0465 22.281 13.2353 22.281C13.4241 22.281 13.6111 22.2438 13.7855 22.1716C13.96 22.0993 14.1184 21.9934 14.2519 21.8599L21.8599 14.2519C21.9934 14.1184 22.0993 13.96 22.1716 13.7855C22.2438 13.6111 22.281 13.4241 22.281 13.2353C22.281 13.0465 22.2438 12.8596 22.1716 12.6852C22.0993 12.5107 21.9934 12.3522 21.8599 12.2188ZM13.2349 20.8438L4.31251 11.9214V4.31251H11.9214L20.8438 13.2349L13.2349 20.8438ZM8.62501 7.54688C8.62501 7.76012 8.56178 7.96856 8.44331 8.14586C8.32484 8.32315 8.15646 8.46134 7.95946 8.54294C7.76246 8.62454 7.54569 8.64589 7.33655 8.60429C7.12741 8.56269 6.93531 8.46001 6.78453 8.30923C6.63375 8.15845 6.53107 7.96635 6.48947 7.75721C6.44787 7.54808 6.46922 7.3313 6.55082 7.1343C6.63243 6.9373 6.77061 6.76892 6.94791 6.65045C7.12521 6.53199 7.33365 6.46876 7.54688 6.46876C7.83282 6.46876 8.10704 6.58235 8.30923 6.78453C8.51142 6.98672 8.62501 7.26095 8.62501 7.54688Z" fill="#FD71AF"/>
</svg>
